<?xml version="1.0" encoding="UTF-8" standalone="no"?>
<!-- Created with Inkscape (http://www.inkscape.org/) -->

<svg
   xmlns:shaper="http://www.shapertools.com/namespaces/shaper"
   xmlns:dc="http://purl.org/dc/elements/1.1/"
   xmlns:cc="http://creativecommons.org/ns#"
   xmlns:rdf="http://www.w3.org/1999/02/22-rdf-syntax-ns#"
   xmlns:svg="http://www.w3.org/2000/svg"
   xmlns="http://www.w3.org/2000/svg"
   xmlns:sodipodi="http://sodipodi.sourceforge.net/DTD/sodipodi-0.dtd"
   xmlns:inkscape="http://www.inkscape.org/namespaces/inkscape"
   width="600mm"
   height="300mm"
   viewBox="0 0 600 300"
   version="1.1"
   id="svg8"
   inkscape:version="0.92.4 (5da689c313, 2019-01-14)"
   sodipodi:docname="Lasercut_pre_line_adjust.svg">
  <defs
     id="defs2" />
  <sodipodi:namedview
     id="base"
     pagecolor="#ffffff"
     bordercolor="#666666"
     borderopacity="1.0"
     inkscape:pageopacity="0.0"
     inkscape:pageshadow="2"
     inkscape:zoom="0.5"
     inkscape:cx="1272.689"
     inkscape:cy="621.00997"
     inkscape:document-units="mm"
     inkscape:current-layer="layer1"
     showgrid="false"
     inkscape:window-width="2560"
     inkscape:window-height="1377"
     inkscape:window-x="-8"
     inkscape:window-y="-8"
     inkscape:window-maximized="1" />
  <metadata
     id="metadata5">
    <rdf:RDF>
      <cc:Work
         rdf:about="">
        <dc:format>image/svg+xml</dc:format>
        <dc:type
           rdf:resource="http://purl.org/dc/dcmitype/StillImage" />
        <dc:title></dc:title>
      </cc:Work>
    </rdf:RDF>
  </metadata>
  <g
     inkscape:label="Layer 1"
     inkscape:groupmode="layer"
     id="layer1"
     transform="translate(0,3)">
    <path
       id="path845"
       shaper:pathType="exterior"
       shaper:cutDepth="0.004"
       d="m 360.20833,117.15142 h -4 v 15.77468 h 4 v 15.77466 h -4 v 15.77468 h 4 v 15.77468 h -4 v 15.77467 h 4 v 93.80258 h -350 v -93.80258 h 4 v -15.77467 h -4 v -15.77468 h 4 v -15.77468 h -4 V 132.9261 h 4 v -15.77468 h -4 v -15.77468 h 4 V 85.602058 h -4 v -11.77467 h 26.92308 v -4 h 26.92308 v 4 h 26.92307 v -4 h 26.92308 v 4 h 26.92308 v -4 h 26.92307 v 4 h 26.92308 v -4 h 26.92308 v 4 h 26.92307 v -4 h 26.92308 v 4 h 26.92307 v -4 h 26.92307 v 4 h 26.92309 v 11.77467 h -4 v 15.774682 h 4 z"
       inkscape:connector-curvature="0"
       style="vector-effect:non-scaling-stroke;fill:none;stroke-width:9.9;stroke:#fe0000;stroke-opacity:1;stroke-miterlimit:4;stroke-dasharray:none" />
    <path
       id="path866"
       shaper:pathType="exterior"
       shaper:cutDepth="0.004"
       d="m 37.887372,29.732148 v -4 h -26.92308 v 30 H 360.96428 v -30 h -26.92307 v 4 h -26.92308 v -4 h -26.92308 v 4 h -26.92307 v -4 H 226.3489 v 4 h -26.92308 v -4 h -26.92307 v 4 h -26.92308 v -4 H 118.6566 v 4 H 91.733522 v -4 h -26.92307 v 4 z"
       inkscape:connector-curvature="0"
       style="vector-effect:non-scaling-stroke;fill:none;stroke-width:10;stroke:#fe0000;stroke-opacity:1" />
    <path
       id="path887"
       shaper:pathType="exterior"
       shaper:cutDepth="0.004"
       d="m 518.66259,225.42262 v 60 H 389.99217 l 14.29671,-6.66667 -1.69047,-3.62523 14.29671,-6.66667 1.69047,3.62523 14.29671,-6.66666 -1.69047,-3.62523 14.29671,-6.66667 1.69048,3.62523 14.29671,-6.66667 -1.69047,-3.62523 14.29671,-6.66666 1.69047,3.62523 14.29672,-6.66667 -1.69048,-3.62523 14.29672,-6.66667 1.69047,3.62523 z"
       inkscape:connector-curvature="0"
       style="vector-effect:non-scaling-stroke;fill:none;stroke-width:10;stroke:#fe0000;stroke-opacity:1" />
    <path
       id="path908"
       shaper:pathType="exterior"
       shaper:cutDepth="0.004"
       d="m 390.74812,200 14.29672,-6.66667 -1.69048,-3.62523 14.29672,-6.66666 1.69047,3.62523 14.29671,-6.66667 -1.69047,-3.62523 14.29671,-6.66667 1.69048,3.62523 14.29671,-6.66666 -1.69047,-3.62523 14.29671,-6.66667 1.69047,3.62523 14.29671,-6.66667 -1.69047,-3.62523 14.29671,-6.66666 1.69047,3.62523 L 519.41854,140 v 60 z"
       inkscape:connector-curvature="0"
       style="vector-effect:non-scaling-stroke;fill:none;stroke-width:10;stroke:#fe0000;stroke-opacity:1;stroke-miterlimit:4;stroke-dasharray:none" />
  </g>
</svg>
